<?xml version="1.0" standalone="no"?>
<!DOCTYPE svg PUBLIC "-//W3C//DTD SVG 20010904//EN"
 "http://www.w3.org/TR/2001/REC-SVG-20010904/DTD/svg10.dtd">
<svg version="1.0" xmlns="http://www.w3.org/2000/svg"
 width="1024.000000pt" height="1024.000000pt" viewBox="0 0 1024.000000 1024.000000"
 preserveAspectRatio="xMidYMid meet">
<metadata>
Created by potrace 1.16, written by Peter Selinger 2001-2019
</metadata>
<g transform="translate(0.000000,1024.000000) scale(0.100000,-0.100000)"
fill="#000000" stroke="none">
<path d="M5164 9349 c-147 -11 -332 -49 -479 -99 -66 -23 -223 -92 -350 -155
-126 -63 -259 -124 -295 -136 -70 -23 -169 -29 -257 -15 -126 21 -142 -82 -28
-182 l45 -39 -62 -39 c-99 -61 -210 -173 -243 -245 -32 -72 -45 -176 -24 -190
22 -13 94 -10 201 10 54 10 99 17 101 15 2 -2 -2 -33 -10 -69 -20 -96 -32
-301 -22 -374 5 -36 23 -92 40 -127 25 -50 31 -72 26 -103 -7 -52 -74 -203
-149 -337 -105 -185 -111 -200 -104 -238 14 -71 75 -114 226 -157 36 -11 78
-19 94 -19 23 0 27 -3 21 -17 -15 -38 -35 -119 -35 -147 0 -22 11 -40 44 -71
33 -30 46 -51 51 -80 4 -22 21 -64 37 -94 22 -41 33 -78 42 -150 28 -215 112
-296 316 -308 110 -6 256 23 400 80 58 23 108 43 111 45 3 1 18 -46 34 -105
15 -59 41 -137 56 -172 16 -36 26 -67 21 -70 -5 -3 -42 -28 -83 -56 -90 -60
-309 -275 -372 -365 -60 -86 -241 -421 -482 -891 -106 -206 -211 -405 -234
-442 -23 -37 -41 -72 -41 -77 0 -78 -113 358 -169 650 -47 248 -48 265 -16
341 74 175 111 314 116 440 3 49 5 53 53 89 112 82 162 163 192 311 20 98 15
239 -11 311 -34 96 -154 194 -263 214 -32 6 -34 9 -28 38 19 90 18 111 -4 139
-53 67 -313 160 -575 205 -318 56 -533 55 -616 -1 -41 -28 -55 -70 -77 -230
l-17 -128 -47 -30 c-59 -38 -105 -90 -131 -148 -15 -35 -18 -59 -15 -117 5
-68 3 -75 -19 -96 -37 -34 -53 -72 -53 -123 0 -47 17 -92 44 -114 13 -11 11
-19 -11 -68 -22 -47 -25 -65 -20 -122 6 -81 33 -147 85 -203 28 -31 41 -56 46
-87 24 -154 172 -315 411 -446 39 -21 73 -42 76 -48 11 -16 41 -381 64 -782
53 -922 101 -1226 241 -1524 107 -228 257 -363 438 -394 168 -29 407 69 604
249 l63 57 -5 -34 c-9 -51 -78 -772 -111 -1152 -15 -180 -13 -208 19 -229 20
-14 63 -8 78 10 24 27 26 37 53 357 114 1335 199 2039 350 2902 19 109 45 254
57 323 12 71 19 137 15 152 -14 53 -81 62 -112 15 -14 -23 -95 -459 -154 -842
-18 -110 -34 -210 -36 -222 -5 -21 -10 -19 -98 38 -98 64 -299 169 -323 169
-8 0 -14 2 -14 5 0 15 33 80 60 120 18 25 86 150 152 278 258 498 493 936 546
1017 59 92 307 349 374 387 l36 21 6 -32 c13 -71 102 -116 228 -116 181 0 399
80 659 242 108 68 441 311 526 383 34 30 61 45 79 45 61 0 406 -200 609 -353
117 -88 296 -267 382 -382 84 -113 175 -290 222 -433 71 -217 135 -596 191
-1122 22 -216 46 -577 38 -585 -3 -3 -48 0 -99 7 -144 20 -825 16 -1114 -5
-126 -10 -266 -21 -310 -26 -44 -4 -82 -7 -84 -5 -2 2 2 124 8 271 23 517 31
770 31 966 0 193 -5 230 -34 249 -21 15 -63 8 -82 -13 -18 -20 -19 -47 -26
-428 -3 -223 -14 -572 -23 -774 -15 -343 -15 -371 0 -394 l17 -25 112 7 112 7
-2 -419 c-1 -230 -5 -449 -9 -488 -11 -115 -73 -447 -155 -825 -90 -413 -95
-456 -56 -482 20 -14 63 -8 79 10 28 30 250 1134 267 1326 5 56 9 279 10 497
l0 396 93 6 c405 27 1041 36 1063 14 17 -17 -53 -730 -97 -992 -45 -268 -133
-614 -252 -995 -67 -213 -70 -226 -41 -254 20 -21 63 -20 86 1 35 31 210 616
282 941 65 290 107 594 142 1024 l18 215 60 11 c66 13 103 34 126 75 13 23 12
60 -4 319 -55 913 -160 1492 -328 1807 -146 276 -426 553 -765 758 -192 116
-416 223 -467 223 -19 0 -32 20 -89 138 -59 123 -137 338 -137 376 0 8 11 31
24 50 35 53 196 374 256 511 187 431 239 684 194 946 -22 128 -56 236 -112
349 -38 77 -61 110 -127 176 -89 90 -151 125 -233 132 -44 4 -59 1 -84 -18
l-30 -22 -16 24 c-38 56 -214 224 -281 268 -170 112 -415 161 -707 139z m-905
-994 c59 -115 202 -225 293 -225 32 0 49 11 140 92 92 81 217 172 225 164 2
-2 -3 -29 -12 -62 -33 -128 -10 -271 71 -449 26 -55 69 -155 96 -222 38 -92
56 -123 72 -127 30 -8 129 -7 142 2 6 4 26 36 43 72 53 107 129 198 193 231
59 30 141 26 205 -11 182 -104 175 -397 -15 -620 -41 -49 -123 -90 -178 -90
-83 0 -121 -64 -68 -117 23 -23 31 -25 84 -21 71 5 165 50 238 114 27 24 52
44 55 44 3 0 8 -11 11 -25 14 -56 93 -201 134 -246 34 -38 56 -52 100 -66 31
-9 59 -18 60 -19 2 -2 19 -56 37 -121 42 -145 82 -244 142 -346 26 -45 42 -82
37 -87 -5 -5 -104 -80 -220 -167 -215 -160 -409 -284 -546 -347 -155 -72 -346
-111 -421 -87 -39 13 -47 30 -62 131 -4 25 -24 88 -45 141 -48 121 -93 273
-81 277 22 7 219 127 239 145 33 30 27 86 -11 107 -25 14 -30 13 -60 -4 -225
-133 -426 -228 -559 -267 -105 -30 -283 -38 -343 -14 -58 22 -74 52 -86 165
-10 96 -17 119 -67 198 -24 39 -29 52 -17 52 24 0 55 38 55 68 0 38 -31 65
-88 77 -26 6 -46 12 -45 15 9 45 12 181 4 202 -13 35 -30 43 -142 68 -107 24
-179 53 -179 72 0 7 21 45 46 83 95 146 204 407 204 490 0 29 -12 67 -34 115
-49 102 -53 151 -25 358 l23 175 50 21 c28 11 98 44 156 72 58 29 107 53 110
53 3 1 20 -28 39 -64z m-1249 -1815 c160 -28 327 -71 430 -111 77 -29 81 -32
76 -57 -85 -436 -260 -1152 -280 -1152 -2 0 -28 11 -57 24 -149 68 -438 125
-671 133 -154 6 -158 6 -153 27 3 11 23 167 46 346 46 375 107 799 116 813 10
17 354 1 493 -23z m659 -395 c62 -21 99 -51 123 -98 62 -122 12 -371 -93 -461
-47 -40 -157 -99 -212 -114 l-38 -11 7 32 c12 59 22 74 51 81 43 11 128 73
157 115 96 139 86 295 -24 363 -27 17 -50 34 -50 38 0 29 15 70 25 70 7 0 31
-7 54 -15z m-1354 -102 c-6 -36 -6 -36 -28 -27 -16 6 -12 31 14 89 l14 30 3
-29 c2 -16 1 -44 -3 -63z m1291 -149 c10 -41 -12 -96 -56 -139 -22 -21 -40
-36 -40 -33 0 7 38 174 46 200 7 25 42 6 50 -28z m-1326 -84 c-5 -36 -10 -72
-10 -80 0 -9 -14 0 -36 24 l-36 38 43 44 c23 24 44 42 45 41 2 -2 -1 -32 -6
-67z m-30 -252 c0 -13 -3 -48 -7 -78 -5 -45 -8 -50 -14 -30 -9 33 -11 115 -2
123 13 14 23 7 23 -15z m1304 -245 c-13 -94 -48 -203 -91 -292 -47 -94 -48
-98 -47 -186 1 -64 13 -145 44 -285 81 -378 129 -557 320 -1210 38 -129 76
-268 85 -307 22 -98 63 -127 116 -85 39 32 25 105 -95 502 -36 118 -63 216
-60 219 15 15 408 -220 420 -252 2 -7 -16 -172 -40 -367 -25 -195 -48 -389
-52 -430 -8 -93 -22 -118 -124 -213 -163 -153 -297 -235 -431 -263 -193 -40
-334 54 -454 301 -149 307 -177 478 -230 1379 -14 236 -34 521 -45 635 -11
113 -20 226 -20 251 0 41 -5 50 -47 91 -27 26 -83 64 -125 87 -42 22 -101 58
-131 80 -50 37 -170 153 -164 158 2 2 33 -8 69 -21 67 -24 266 -65 411 -85
119 -15 324 -13 385 5 67 20 85 45 128 180 l35 112 62 15 c89 23 86 23 81 -19z
m-824 -83 c147 -24 332 -67 375 -87 27 -13 19 -13 -86 -9 -190 9 -548 78 -608
117 -25 16 173 3 319 -21z"/>
<path d="M4128 7831 c-50 -10 -68 -28 -68 -66 0 -51 24 -65 111 -65 41 0 111
-7 157 -16 81 -17 84 -16 110 3 60 44 27 112 -64 131 -71 15 -203 22 -246 13z"/>
<path d="M5584 7680 c-45 -18 -104 -127 -104 -192 0 -48 80 -77 112 -40 25 27
78 152 78 183 0 17 -8 34 -22 43 -25 18 -34 19 -64 6z"/>
<path d="M4182 7563 c-37 -15 -56 -130 -29 -183 17 -34 54 -51 82 -38 31 14
45 49 45 109 0 88 -41 135 -98 112z"/>
<path d="M2783 7981 c-41 -25 -105 -111 -139 -186 -20 -43 -29 -81 -32 -135
-5 -96 17 -159 93 -261 31 -40 58 -84 62 -97 8 -34 -3 -75 -44 -166 -35 -74
-38 -89 -38 -168 0 -78 2 -89 24 -112 30 -31 64 -33 92 -5 15 15 19 28 15 47
-20 87 -19 88 28 190 48 103 64 173 52 236 -4 20 -39 84 -79 142 -66 99 -71
110 -75 168 -5 81 17 133 92 215 59 65 67 87 39 119 -27 30 -54 34 -90 13z"/>
<path d="M3047 7682 c-25 -27 -21 -68 12 -116 16 -23 37 -66 47 -95 25 -78 14
-134 -52 -273 -52 -109 -56 -123 -57 -190 0 -129 49 -211 117 -194 40 10 52
46 32 96 -29 72 -22 138 25 227 82 155 98 251 60 372 -46 148 -133 229 -184
173z"/>
</g>
</svg>
